<mxfile host="app.diagrams.net" agent="Mozilla/5.0 (Windows NT 10.0; Win64; x64) AppleWebKit/537.36 (KHTML, like Gecko) Chrome/128.0.0.0 Safari/537.36" version="24.7.8">
  <diagram name="Page-1" id="mkeMCNCh3hxUrUkYrr-9">
    <mxGraphModel dx="594" dy="412" grid="1" gridSize="10" guides="1" tooltips="1" connect="1" arrows="1" fold="1" page="1" pageScale="1" pageWidth="827" pageHeight="1169" math="0" shadow="0">
      <root>
        <mxCell id="0" />
        <mxCell id="1" parent="0" />
        <mxCell id="wRAkL__spqJKJVa9yrCW-5" value="" style="edgeStyle=orthogonalEdgeStyle;rounded=0;orthogonalLoop=1;jettySize=auto;html=1;" edge="1" parent="1" source="wRAkL__spqJKJVa9yrCW-1" target="wRAkL__spqJKJVa9yrCW-4">
          <mxGeometry relative="1" as="geometry" />
        </mxCell>
        <mxCell id="wRAkL__spqJKJVa9yrCW-7" value="" style="edgeStyle=orthogonalEdgeStyle;rounded=0;orthogonalLoop=1;jettySize=auto;html=1;" edge="1" parent="1" source="wRAkL__spqJKJVa9yrCW-1" target="wRAkL__spqJKJVa9yrCW-6">
          <mxGeometry relative="1" as="geometry" />
        </mxCell>
        <mxCell id="wRAkL__spqJKJVa9yrCW-9" value="" style="edgeStyle=orthogonalEdgeStyle;rounded=0;orthogonalLoop=1;jettySize=auto;html=1;" edge="1" parent="1" source="wRAkL__spqJKJVa9yrCW-1" target="wRAkL__spqJKJVa9yrCW-8">
          <mxGeometry relative="1" as="geometry" />
        </mxCell>
        <mxCell id="wRAkL__spqJKJVa9yrCW-13" style="edgeStyle=orthogonalEdgeStyle;rounded=0;orthogonalLoop=1;jettySize=auto;html=1;exitX=0.5;exitY=1;exitDx=0;exitDy=0;" edge="1" parent="1" source="wRAkL__spqJKJVa9yrCW-1">
          <mxGeometry relative="1" as="geometry">
            <mxPoint x="170" y="360" as="targetPoint" />
          </mxGeometry>
        </mxCell>
        <mxCell id="wRAkL__spqJKJVa9yrCW-14" style="edgeStyle=orthogonalEdgeStyle;rounded=0;orthogonalLoop=1;jettySize=auto;html=1;exitX=0.5;exitY=1;exitDx=0;exitDy=0;" edge="1" parent="1" source="wRAkL__spqJKJVa9yrCW-1">
          <mxGeometry relative="1" as="geometry">
            <mxPoint x="440" y="360" as="targetPoint" />
          </mxGeometry>
        </mxCell>
        <mxCell id="wRAkL__spqJKJVa9yrCW-1" value="E-L learning system" style="rounded=0;whiteSpace=wrap;html=1;" vertex="1" parent="1">
          <mxGeometry x="250" y="190" width="120" height="60" as="geometry" />
        </mxCell>
        <mxCell id="wRAkL__spqJKJVa9yrCW-4" value="Manage System&lt;div&gt;grade, assign, announce...&lt;/div&gt;" style="rounded=0;whiteSpace=wrap;html=1;" vertex="1" parent="1">
          <mxGeometry x="450" y="190" width="120" height="60" as="geometry" />
        </mxCell>
        <mxCell id="wRAkL__spqJKJVa9yrCW-6" value="User System&lt;div&gt;study records, homework, dashboards&lt;/div&gt;" style="rounded=0;whiteSpace=wrap;html=1;" vertex="1" parent="1">
          <mxGeometry x="50" y="190" width="120" height="60" as="geometry" />
        </mxCell>
        <mxCell id="wRAkL__spqJKJVa9yrCW-8" value="&lt;div&gt;&lt;span style=&quot;background-color: initial;&quot;&gt;Support System&lt;/span&gt;&lt;br&gt;&lt;/div&gt;&lt;div&gt;&lt;span style=&quot;background-color: initial;&quot;&gt;reporting bugs, asking for help&lt;/span&gt;&lt;/div&gt;" style="rounded=0;whiteSpace=wrap;html=1;" vertex="1" parent="1">
          <mxGeometry x="140" y="60" width="120" height="60" as="geometry" />
        </mxCell>
        <mxCell id="wRAkL__spqJKJVa9yrCW-15" value="Interactive System&lt;div&gt;discussions, meetings, Q&amp;amp;A&lt;/div&gt;" style="rounded=0;whiteSpace=wrap;html=1;" vertex="1" parent="1">
          <mxGeometry x="110" y="360" width="120" height="60" as="geometry" />
        </mxCell>
        <mxCell id="wRAkL__spqJKJVa9yrCW-16" value="" style="rounded=0;whiteSpace=wrap;html=1;" vertex="1" parent="1">
          <mxGeometry x="250" y="190" width="120" height="60" as="geometry" />
        </mxCell>
        <mxCell id="wRAkL__spqJKJVa9yrCW-19" style="edgeStyle=orthogonalEdgeStyle;rounded=0;orthogonalLoop=1;jettySize=auto;html=1;exitX=0.5;exitY=0;exitDx=0;exitDy=0;" edge="1" parent="1" source="wRAkL__spqJKJVa9yrCW-17">
          <mxGeometry relative="1" as="geometry">
            <mxPoint x="410" y="120" as="targetPoint" />
          </mxGeometry>
        </mxCell>
        <mxCell id="wRAkL__spqJKJVa9yrCW-17" value="E-L Learning System" style="rounded=0;whiteSpace=wrap;html=1;" vertex="1" parent="1">
          <mxGeometry x="250" y="190" width="120" height="60" as="geometry" />
        </mxCell>
        <mxCell id="wRAkL__spqJKJVa9yrCW-18" value="Library System&lt;div&gt;supporting materials&lt;/div&gt;" style="rounded=0;whiteSpace=wrap;html=1;" vertex="1" parent="1">
          <mxGeometry x="380" y="360" width="120" height="60" as="geometry" />
        </mxCell>
        <mxCell id="wRAkL__spqJKJVa9yrCW-20" value="Course System&lt;div&gt;course description, enroll or withdraw&lt;/div&gt;" style="rounded=0;whiteSpace=wrap;html=1;" vertex="1" parent="1">
          <mxGeometry x="350" y="60" width="120" height="60" as="geometry" />
        </mxCell>
      </root>
    </mxGraphModel>
  </diagram>
</mxfile>
